%TF.GenerationSoftware,KiCad,Pcbnew,8.0.1*%
%TF.CreationDate,2024-05-06T20:03:30+01:00*%
%TF.ProjectId,NES_Controller_Breakout_Board,4e45535f-436f-46e7-9472-6f6c6c65725f,rev?*%
%TF.SameCoordinates,Original*%
%TF.FileFunction,Copper,L2,Bot*%
%TF.FilePolarity,Positive*%
%FSLAX46Y46*%
G04 Gerber Fmt 4.6, Leading zero omitted, Abs format (unit mm)*
G04 Created by KiCad (PCBNEW 8.0.1) date 2024-05-06 20:03:30*
%MOMM*%
%LPD*%
G01*
G04 APERTURE LIST*
%TA.AperFunction,ComponentPad*%
%ADD10C,2.286000*%
%TD*%
%TA.AperFunction,ComponentPad*%
%ADD11C,5.400000*%
%TD*%
%TA.AperFunction,ComponentPad*%
%ADD12R,1.700000X1.700000*%
%TD*%
%TA.AperFunction,ComponentPad*%
%ADD13O,1.700000X1.700000*%
%TD*%
%TA.AperFunction,Conductor*%
%ADD14C,0.200000*%
%TD*%
G04 APERTURE END LIST*
D10*
%TO.P,J1,1,GND*%
%TO.N,GND*%
X153196653Y-126357655D03*
%TO.P,J1,2,Clock*%
%TO.N,Clock*%
X153196653Y-122293655D03*
%TO.P,J1,3,Load*%
%TO.N,Load*%
X153196653Y-118229655D03*
%TO.P,J1,4,Data*%
%TO.N,Data*%
X153196653Y-114165655D03*
%TO.P,J1,5,NC*%
%TO.N,unconnected-(J1-NC-Pad5)*%
X150885253Y-114165655D03*
%TO.P,J1,6,NC*%
%TO.N,unconnected-(J1-NC-Pad6)*%
X150885253Y-118229655D03*
%TO.P,J1,7,VCC*%
%TO.N,VCC*%
X150885253Y-122293655D03*
%TD*%
D11*
%TO.P,H2,1,1*%
%TO.N,GND*%
X136900426Y-100000000D03*
%TD*%
D12*
%TO.P,J2,1,Pin_1*%
%TO.N,VCC*%
X171500000Y-115000000D03*
D13*
%TO.P,J2,2,Pin_2*%
%TO.N,GND*%
X171500000Y-117540000D03*
%TO.P,J2,3,Pin_3*%
%TO.N,Data*%
X171500000Y-120080000D03*
%TO.P,J2,4,Pin_4*%
%TO.N,Load*%
X171500000Y-122620000D03*
%TO.P,J2,5,Pin_5*%
%TO.N,Clock*%
X171500000Y-125160000D03*
%TD*%
D11*
%TO.P,H1,1,1*%
%TO.N,GND*%
X176900426Y-100000000D03*
%TD*%
%TO.P,H3,1,1*%
%TO.N,GND*%
X176900426Y-140000000D03*
%TD*%
%TO.P,H4,1,1*%
%TO.N,GND*%
X136900426Y-140000000D03*
%TD*%
D14*
%TO.N,VCC*%
X165649345Y-120850655D02*
X171500000Y-115000000D01*
X150885253Y-122293655D02*
X152328253Y-120850655D01*
X152328253Y-120850655D02*
X165649345Y-120850655D01*
%TD*%
%TA.AperFunction,Conductor*%
%TO.N,GND*%
G36*
X176903125Y-95500618D02*
G01*
X177287188Y-95517388D01*
X177297930Y-95518328D01*
X177676390Y-95568155D01*
X177687017Y-95570028D01*
X178059702Y-95652653D01*
X178070128Y-95655446D01*
X178434183Y-95770234D01*
X178444333Y-95773928D01*
X178505049Y-95799078D01*
X178796986Y-95920004D01*
X178806790Y-95924576D01*
X179145370Y-96100830D01*
X179154717Y-96106226D01*
X179437957Y-96286673D01*
X179476648Y-96311322D01*
X179485508Y-96317526D01*
X179788339Y-96549896D01*
X179796615Y-96556840D01*
X180063133Y-96801060D01*
X180078043Y-96814723D01*
X180085692Y-96822372D01*
X180343569Y-97103797D01*
X180350522Y-97112084D01*
X180582881Y-97414901D01*
X180589086Y-97423762D01*
X180794179Y-97745696D01*
X180799587Y-97755064D01*
X180975833Y-98093629D01*
X180980405Y-98103433D01*
X181126477Y-98456083D01*
X181130177Y-98466249D01*
X181244955Y-98830281D01*
X181247755Y-98840729D01*
X181330372Y-99213390D01*
X181332250Y-99224044D01*
X181382071Y-99602474D01*
X181383014Y-99613250D01*
X181399808Y-99997884D01*
X181399926Y-100003293D01*
X181399926Y-139997293D01*
X181399808Y-140002702D01*
X181383040Y-140386752D01*
X181382097Y-140397528D01*
X181332276Y-140775957D01*
X181330398Y-140786611D01*
X181247779Y-141159278D01*
X181244979Y-141169726D01*
X181130201Y-141533759D01*
X181126501Y-141543925D01*
X180980428Y-141896577D01*
X180975856Y-141906381D01*
X180799610Y-142244948D01*
X180794202Y-142254316D01*
X180589107Y-142576252D01*
X180582902Y-142585113D01*
X180350542Y-142887932D01*
X180343589Y-142896219D01*
X180085711Y-143177645D01*
X180078062Y-143185294D01*
X179796643Y-143443169D01*
X179788356Y-143450123D01*
X179485519Y-143682499D01*
X179476657Y-143688703D01*
X179154745Y-143893785D01*
X179145377Y-143899194D01*
X178806801Y-144075446D01*
X178796997Y-144080018D01*
X178444349Y-144226092D01*
X178434184Y-144229792D01*
X178070147Y-144344574D01*
X178059698Y-144347374D01*
X177687035Y-144429993D01*
X177676382Y-144431871D01*
X177297950Y-144481695D01*
X177287173Y-144482638D01*
X176903720Y-144499382D01*
X176898311Y-144499500D01*
X136973925Y-144499500D01*
X136973909Y-144499499D01*
X136903127Y-144499499D01*
X136897719Y-144499381D01*
X136513671Y-144482616D01*
X136502895Y-144481673D01*
X136313678Y-144456763D01*
X136124462Y-144431853D01*
X136113809Y-144429975D01*
X135741145Y-144347359D01*
X135730696Y-144344559D01*
X135366657Y-144229779D01*
X135356492Y-144226079D01*
X135003847Y-144080011D01*
X134994042Y-144075439D01*
X134655471Y-143899191D01*
X134646103Y-143893783D01*
X134324167Y-143688689D01*
X134315306Y-143682484D01*
X134012486Y-143450123D01*
X134004199Y-143443170D01*
X133744324Y-143205041D01*
X133722760Y-143185281D01*
X133715117Y-143177637D01*
X133666595Y-143124685D01*
X133457249Y-142896224D01*
X133450300Y-142887944D01*
X133450071Y-142887646D01*
X133217918Y-142585099D01*
X133211715Y-142576238D01*
X133166845Y-142505806D01*
X133006625Y-142254312D01*
X133001231Y-142244971D01*
X132824972Y-141906381D01*
X132820400Y-141896577D01*
X132685474Y-141570839D01*
X132674321Y-141543914D01*
X132670632Y-141533779D01*
X132555843Y-141169714D01*
X132553047Y-141159278D01*
X132470426Y-140786604D01*
X132468550Y-140775958D01*
X132460286Y-140713185D01*
X132418726Y-140397508D01*
X132417786Y-140386771D01*
X132401044Y-140003296D01*
X132400972Y-140000000D01*
X133695384Y-140000000D01*
X133715536Y-140358846D01*
X133715538Y-140358858D01*
X133775740Y-140713185D01*
X133775742Y-140713194D01*
X133875238Y-141058552D01*
X134012779Y-141390609D01*
X134012781Y-141390613D01*
X134186641Y-141705189D01*
X134186644Y-141705194D01*
X134394619Y-141998306D01*
X134467270Y-142079601D01*
X135785154Y-140761717D01*
X135870704Y-140879466D01*
X136020960Y-141029722D01*
X136138707Y-141115270D01*
X134820823Y-142433154D01*
X134902119Y-142505806D01*
X135195231Y-142713781D01*
X135195236Y-142713784D01*
X135509812Y-142887644D01*
X135509816Y-142887646D01*
X135841873Y-143025187D01*
X136187231Y-143124683D01*
X136187240Y-143124685D01*
X136541567Y-143184887D01*
X136541579Y-143184889D01*
X136900426Y-143205041D01*
X137259272Y-143184889D01*
X137259284Y-143184887D01*
X137613611Y-143124685D01*
X137613620Y-143124683D01*
X137958978Y-143025187D01*
X138291035Y-142887646D01*
X138291039Y-142887644D01*
X138605615Y-142713784D01*
X138605620Y-142713781D01*
X138898725Y-142505811D01*
X138898748Y-142505793D01*
X138980028Y-142433155D01*
X138980028Y-142433154D01*
X137662144Y-141115270D01*
X137779892Y-141029722D01*
X137930148Y-140879466D01*
X138015696Y-140761718D01*
X139333580Y-142079602D01*
X139333581Y-142079602D01*
X139406219Y-141998322D01*
X139406237Y-141998299D01*
X139614207Y-141705194D01*
X139614210Y-141705189D01*
X139788070Y-141390613D01*
X139788072Y-141390609D01*
X139925613Y-141058552D01*
X140025109Y-140713194D01*
X140025111Y-140713185D01*
X140085313Y-140358858D01*
X140085315Y-140358846D01*
X140105467Y-140000000D01*
X173695384Y-140000000D01*
X173715536Y-140358846D01*
X173715538Y-140358858D01*
X173775740Y-140713185D01*
X173775742Y-140713194D01*
X173875238Y-141058552D01*
X174012779Y-141390609D01*
X174012781Y-141390613D01*
X174186641Y-141705189D01*
X174186644Y-141705194D01*
X174394619Y-141998306D01*
X174467270Y-142079601D01*
X175785154Y-140761717D01*
X175870704Y-140879466D01*
X176020960Y-141029722D01*
X176138707Y-141115270D01*
X174820823Y-142433154D01*
X174902119Y-142505806D01*
X175195231Y-142713781D01*
X175195236Y-142713784D01*
X175509812Y-142887644D01*
X175509816Y-142887646D01*
X175841873Y-143025187D01*
X176187231Y-143124683D01*
X176187240Y-143124685D01*
X176541567Y-143184887D01*
X176541579Y-143184889D01*
X176900426Y-143205041D01*
X177259272Y-143184889D01*
X177259284Y-143184887D01*
X177613611Y-143124685D01*
X177613620Y-143124683D01*
X177958978Y-143025187D01*
X178291035Y-142887646D01*
X178291039Y-142887644D01*
X178605615Y-142713784D01*
X178605620Y-142713781D01*
X178898725Y-142505811D01*
X178898748Y-142505793D01*
X178980028Y-142433155D01*
X178980028Y-142433154D01*
X177662144Y-141115270D01*
X177779892Y-141029722D01*
X177930148Y-140879466D01*
X178015696Y-140761718D01*
X179333580Y-142079602D01*
X179333581Y-142079602D01*
X179406219Y-141998322D01*
X179406237Y-141998299D01*
X179614207Y-141705194D01*
X179614210Y-141705189D01*
X179788070Y-141390613D01*
X179788072Y-141390609D01*
X179925613Y-141058552D01*
X180025109Y-140713194D01*
X180025111Y-140713185D01*
X180085313Y-140358858D01*
X180085315Y-140358846D01*
X180105467Y-140000000D01*
X180085315Y-139641153D01*
X180085313Y-139641141D01*
X180025111Y-139286814D01*
X180025109Y-139286805D01*
X179925613Y-138941447D01*
X179788072Y-138609390D01*
X179788070Y-138609386D01*
X179614210Y-138294810D01*
X179614207Y-138294805D01*
X179406232Y-138001693D01*
X179333580Y-137920397D01*
X178015696Y-139238281D01*
X177930148Y-139120534D01*
X177779892Y-138970278D01*
X177662143Y-138884729D01*
X178980027Y-137566844D01*
X178980028Y-137566844D01*
X178898732Y-137494193D01*
X178605620Y-137286218D01*
X178605615Y-137286215D01*
X178291039Y-137112355D01*
X178291035Y-137112353D01*
X177958978Y-136974812D01*
X177613620Y-136875316D01*
X177613611Y-136875314D01*
X177259284Y-136815112D01*
X177259272Y-136815110D01*
X176900426Y-136794958D01*
X176541579Y-136815110D01*
X176541567Y-136815112D01*
X176187240Y-136875314D01*
X176187231Y-136875316D01*
X175841873Y-136974812D01*
X175509816Y-137112353D01*
X175509812Y-137112355D01*
X175195236Y-137286215D01*
X175195231Y-137286218D01*
X174902119Y-137494193D01*
X174820823Y-137566844D01*
X176138708Y-138884729D01*
X176020960Y-138970278D01*
X175870704Y-139120534D01*
X175785155Y-139238282D01*
X174467270Y-137920397D01*
X174394619Y-138001693D01*
X174186644Y-138294805D01*
X174186641Y-138294810D01*
X174012781Y-138609386D01*
X174012779Y-138609390D01*
X173875238Y-138941447D01*
X173775742Y-139286805D01*
X173775740Y-139286814D01*
X173715538Y-139641141D01*
X173715536Y-139641153D01*
X173695384Y-140000000D01*
X140105467Y-140000000D01*
X140085315Y-139641153D01*
X140085313Y-139641141D01*
X140025111Y-139286814D01*
X140025109Y-139286805D01*
X139925613Y-138941447D01*
X139788072Y-138609390D01*
X139788070Y-138609386D01*
X139614210Y-138294810D01*
X139614207Y-138294805D01*
X139406232Y-138001693D01*
X139333580Y-137920397D01*
X138015696Y-139238281D01*
X137930148Y-139120534D01*
X137779892Y-138970278D01*
X137662143Y-138884729D01*
X138980027Y-137566844D01*
X138980028Y-137566844D01*
X138898732Y-137494193D01*
X138605620Y-137286218D01*
X138605615Y-137286215D01*
X138291039Y-137112355D01*
X138291035Y-137112353D01*
X137958978Y-136974812D01*
X137613620Y-136875316D01*
X137613611Y-136875314D01*
X137259284Y-136815112D01*
X137259272Y-136815110D01*
X136900426Y-136794958D01*
X136541579Y-136815110D01*
X136541567Y-136815112D01*
X136187240Y-136875314D01*
X136187231Y-136875316D01*
X135841873Y-136974812D01*
X135509816Y-137112353D01*
X135509812Y-137112355D01*
X135195236Y-137286215D01*
X135195231Y-137286218D01*
X134902119Y-137494193D01*
X134820823Y-137566844D01*
X136138708Y-138884729D01*
X136020960Y-138970278D01*
X135870704Y-139120534D01*
X135785155Y-139238282D01*
X134467270Y-137920397D01*
X134394619Y-138001693D01*
X134186644Y-138294805D01*
X134186641Y-138294810D01*
X134012781Y-138609386D01*
X134012779Y-138609390D01*
X133875238Y-138941447D01*
X133775742Y-139286805D01*
X133775740Y-139286814D01*
X133715538Y-139641141D01*
X133715536Y-139641153D01*
X133695384Y-140000000D01*
X132400972Y-140000000D01*
X132400926Y-139997888D01*
X132400926Y-129961078D01*
X137707124Y-129961078D01*
X137726878Y-130275077D01*
X137726879Y-130275084D01*
X137785838Y-130584156D01*
X137883065Y-130883389D01*
X137883067Y-130883394D01*
X138017029Y-131168076D01*
X138017032Y-131168082D01*
X138185619Y-131433734D01*
X138185622Y-131433738D01*
X138386174Y-131676163D01*
X138386176Y-131676165D01*
X138615536Y-131891549D01*
X138615546Y-131891557D01*
X138870072Y-132076481D01*
X138870077Y-132076483D01*
X138870084Y-132076489D01*
X139145802Y-132228067D01*
X139145807Y-132228069D01*
X139145809Y-132228070D01*
X139145810Y-132228071D01*
X139438339Y-132343891D01*
X139438342Y-132343892D01*
X139743091Y-132422138D01*
X139743095Y-132422139D01*
X139808578Y-132430411D01*
X140055238Y-132461572D01*
X140055247Y-132461572D01*
X140055250Y-132461573D01*
X140055252Y-132461573D01*
X140369884Y-132461573D01*
X140369886Y-132461573D01*
X140369889Y-132461572D01*
X140369897Y-132461572D01*
X140556161Y-132438041D01*
X140682041Y-132422139D01*
X140986793Y-132343892D01*
X140986796Y-132343891D01*
X141279325Y-132228071D01*
X141279326Y-132228070D01*
X141279324Y-132228070D01*
X141279334Y-132228067D01*
X141555052Y-132076489D01*
X141809598Y-131891551D01*
X142038958Y-131676167D01*
X142239515Y-131433736D01*
X142408105Y-131168080D01*
X142542071Y-130883388D01*
X142639299Y-130584152D01*
X142698256Y-130275088D01*
X142718012Y-129961073D01*
X142702484Y-129714263D01*
X142698257Y-129647068D01*
X142698256Y-129647061D01*
X142698256Y-129647058D01*
X142639299Y-129337994D01*
X142542071Y-129038758D01*
X142408105Y-128754066D01*
X142239515Y-128488410D01*
X142221551Y-128466695D01*
X142038961Y-128245982D01*
X142038959Y-128245980D01*
X141809599Y-128030596D01*
X141809589Y-128030588D01*
X141555063Y-127845664D01*
X141555056Y-127845659D01*
X141555052Y-127845657D01*
X141279334Y-127694079D01*
X141279331Y-127694077D01*
X141279326Y-127694075D01*
X141279325Y-127694074D01*
X140986796Y-127578254D01*
X140986793Y-127578253D01*
X140682044Y-127500007D01*
X140682031Y-127500005D01*
X140369897Y-127460573D01*
X140369886Y-127460573D01*
X140055250Y-127460573D01*
X140055238Y-127460573D01*
X139743104Y-127500005D01*
X139743091Y-127500007D01*
X139438342Y-127578253D01*
X139438339Y-127578254D01*
X139145810Y-127694074D01*
X139145809Y-127694075D01*
X138870084Y-127845657D01*
X138870072Y-127845664D01*
X138615546Y-128030588D01*
X138615536Y-128030596D01*
X138386176Y-128245980D01*
X138386174Y-128245982D01*
X138185622Y-128488407D01*
X138185619Y-128488411D01*
X138017032Y-128754063D01*
X138017029Y-128754069D01*
X137883067Y-129038751D01*
X137883065Y-129038756D01*
X137785838Y-129337989D01*
X137726879Y-129647061D01*
X137726878Y-129647068D01*
X137707124Y-129961067D01*
X137707124Y-129961078D01*
X132400926Y-129961078D01*
X132400926Y-126357655D01*
X151548573Y-126357655D01*
X151568864Y-126615475D01*
X151629235Y-126866940D01*
X151728202Y-127105868D01*
X151863326Y-127326369D01*
X151863329Y-127326374D01*
X151868420Y-127332334D01*
X152480730Y-126720024D01*
X152487614Y-126736644D01*
X152575175Y-126867689D01*
X152686619Y-126979133D01*
X152817664Y-127066694D01*
X152834282Y-127073577D01*
X152221972Y-127685887D01*
X152227936Y-127690980D01*
X152448439Y-127826105D01*
X152687367Y-127925072D01*
X152938832Y-127985443D01*
X153196653Y-128005734D01*
X153454473Y-127985443D01*
X153705938Y-127925072D01*
X153944866Y-127826105D01*
X154165366Y-127690981D01*
X154165376Y-127690974D01*
X154171331Y-127685887D01*
X154171331Y-127685886D01*
X153559022Y-127073577D01*
X153575642Y-127066694D01*
X153706687Y-126979133D01*
X153818131Y-126867689D01*
X153905692Y-126736644D01*
X153912575Y-126720024D01*
X154524884Y-127332333D01*
X154524885Y-127332333D01*
X154529972Y-127326378D01*
X154529979Y-127326368D01*
X154665103Y-127105868D01*
X154764070Y-126866940D01*
X154824441Y-126615475D01*
X154844732Y-126357655D01*
X154824441Y-126099834D01*
X154764070Y-125848369D01*
X154665103Y-125609441D01*
X154529978Y-125388938D01*
X154524885Y-125382974D01*
X153912575Y-125995284D01*
X153905692Y-125978666D01*
X153818131Y-125847621D01*
X153706687Y-125736177D01*
X153575642Y-125648616D01*
X153559022Y-125641731D01*
X154171332Y-125029422D01*
X154171332Y-125029421D01*
X154165372Y-125024331D01*
X154165367Y-125024328D01*
X153944866Y-124889204D01*
X153705938Y-124790237D01*
X153454473Y-124729866D01*
X153196653Y-124709575D01*
X152938832Y-124729866D01*
X152687367Y-124790237D01*
X152448439Y-124889204D01*
X152227942Y-125024325D01*
X152227926Y-125024337D01*
X152221973Y-125029421D01*
X152834283Y-125641731D01*
X152817664Y-125648616D01*
X152686619Y-125736177D01*
X152575175Y-125847621D01*
X152487614Y-125978666D01*
X152480730Y-125995285D01*
X151868419Y-125382975D01*
X151863335Y-125388928D01*
X151863323Y-125388944D01*
X151728202Y-125609441D01*
X151629235Y-125848369D01*
X151568864Y-126099834D01*
X151548573Y-126357655D01*
X132400926Y-126357655D01*
X132400926Y-122293655D01*
X149236671Y-122293655D01*
X149256968Y-122551553D01*
X149317355Y-122803085D01*
X149317359Y-122803097D01*
X149416355Y-123042096D01*
X149551520Y-123262664D01*
X149551523Y-123262669D01*
X149581557Y-123297834D01*
X149719529Y-123459379D01*
X149845444Y-123566920D01*
X149916238Y-123627384D01*
X149916243Y-123627387D01*
X150136811Y-123762552D01*
X150212818Y-123794035D01*
X150375813Y-123861550D01*
X150627358Y-123921940D01*
X150885253Y-123942237D01*
X151143148Y-123921940D01*
X151394693Y-123861550D01*
X151633694Y-123762552D01*
X151854265Y-123627386D01*
X151960422Y-123536719D01*
X152024182Y-123508149D01*
X152093268Y-123518586D01*
X152121482Y-123536718D01*
X152174477Y-123581980D01*
X152227638Y-123627384D01*
X152227643Y-123627387D01*
X152448211Y-123762552D01*
X152524218Y-123794035D01*
X152687213Y-123861550D01*
X152938758Y-123921940D01*
X153196653Y-123942237D01*
X153454548Y-123921940D01*
X153706093Y-123861550D01*
X153945094Y-123762552D01*
X154165665Y-123627386D01*
X154362377Y-123459379D01*
X154530384Y-123262667D01*
X154665550Y-123042096D01*
X154764548Y-122803095D01*
X154824938Y-122551550D01*
X154845235Y-122293655D01*
X154824938Y-122035760D01*
X154764548Y-121784215D01*
X154697608Y-121622608D01*
X154690139Y-121553138D01*
X154721414Y-121490659D01*
X154781503Y-121455007D01*
X154812169Y-121451155D01*
X165562676Y-121451155D01*
X165562692Y-121451156D01*
X165570288Y-121451156D01*
X165728399Y-121451156D01*
X165728402Y-121451156D01*
X165881130Y-121410232D01*
X165931249Y-121381294D01*
X166018061Y-121331175D01*
X166129865Y-121219371D01*
X166129865Y-121219369D01*
X166140073Y-121209162D01*
X166140074Y-121209159D01*
X170022916Y-117326318D01*
X170084238Y-117292834D01*
X170110596Y-117290000D01*
X171066988Y-117290000D01*
X171034075Y-117347007D01*
X171000000Y-117474174D01*
X171000000Y-117605826D01*
X171034075Y-117732993D01*
X171066988Y-117790000D01*
X170169364Y-117790000D01*
X170226567Y-118003486D01*
X170226570Y-118003492D01*
X170326399Y-118217578D01*
X170461894Y-118411082D01*
X170628917Y-118578105D01*
X170814595Y-118708119D01*
X170858219Y-118762696D01*
X170865412Y-118832195D01*
X170833890Y-118894549D01*
X170814595Y-118911269D01*
X170628594Y-119041508D01*
X170461505Y-119208597D01*
X170325965Y-119402169D01*
X170325964Y-119402171D01*
X170226098Y-119616335D01*
X170226094Y-119616344D01*
X170164938Y-119844586D01*
X170164936Y-119844596D01*
X170144341Y-120079999D01*
X170144341Y-120080000D01*
X170164936Y-120315403D01*
X170164938Y-120315413D01*
X170226094Y-120543655D01*
X170226096Y-120543659D01*
X170226097Y-120543663D01*
X170311011Y-120725761D01*
X170325965Y-120757830D01*
X170325967Y-120757834D01*
X170461501Y-120951395D01*
X170461506Y-120951402D01*
X170628597Y-121118493D01*
X170628603Y-121118498D01*
X170814158Y-121248425D01*
X170857783Y-121303002D01*
X170864977Y-121372500D01*
X170833454Y-121434855D01*
X170814158Y-121451575D01*
X170628597Y-121581505D01*
X170461505Y-121748597D01*
X170325965Y-121942169D01*
X170325964Y-121942171D01*
X170226098Y-122156335D01*
X170226094Y-122156344D01*
X170164938Y-122384586D01*
X170164936Y-122384596D01*
X170144341Y-122619999D01*
X170144341Y-122620000D01*
X170164936Y-122855403D01*
X170164938Y-122855413D01*
X170226094Y-123083655D01*
X170226096Y-123083659D01*
X170226097Y-123083663D01*
X170309567Y-123262664D01*
X170325965Y-123297830D01*
X170325967Y-123297834D01*
X170461501Y-123491395D01*
X170461506Y-123491402D01*
X170628597Y-123658493D01*
X170628603Y-123658498D01*
X170814158Y-123788425D01*
X170857783Y-123843002D01*
X170864977Y-123912500D01*
X170833454Y-123974855D01*
X170814158Y-123991575D01*
X170628597Y-124121505D01*
X170461505Y-124288597D01*
X170325965Y-124482169D01*
X170325964Y-124482171D01*
X170226098Y-124696335D01*
X170226094Y-124696344D01*
X170164938Y-124924586D01*
X170164936Y-124924596D01*
X170144341Y-125159999D01*
X170144341Y-125160000D01*
X170164936Y-125395403D01*
X170164938Y-125395413D01*
X170226094Y-125623655D01*
X170226096Y-125623659D01*
X170226097Y-125623663D01*
X170325965Y-125837830D01*
X170325967Y-125837834D01*
X170434281Y-125992521D01*
X170461505Y-126031401D01*
X170628599Y-126198495D01*
X170725384Y-126266265D01*
X170822165Y-126334032D01*
X170822167Y-126334033D01*
X170822170Y-126334035D01*
X171036337Y-126433903D01*
X171036343Y-126433904D01*
X171036344Y-126433905D01*
X171091285Y-126448626D01*
X171264592Y-126495063D01*
X171452918Y-126511539D01*
X171499999Y-126515659D01*
X171500000Y-126515659D01*
X171500001Y-126515659D01*
X171539234Y-126512226D01*
X171735408Y-126495063D01*
X171963663Y-126433903D01*
X172177830Y-126334035D01*
X172371401Y-126198495D01*
X172538495Y-126031401D01*
X172674035Y-125837830D01*
X172773903Y-125623663D01*
X172835063Y-125395408D01*
X172855659Y-125160000D01*
X172835063Y-124924592D01*
X172773903Y-124696337D01*
X172674035Y-124482171D01*
X172538495Y-124288599D01*
X172538494Y-124288597D01*
X172371402Y-124121506D01*
X172371396Y-124121501D01*
X172185842Y-123991575D01*
X172142217Y-123936998D01*
X172135023Y-123867500D01*
X172166546Y-123805145D01*
X172185842Y-123788425D01*
X172222792Y-123762552D01*
X172371401Y-123658495D01*
X172538495Y-123491401D01*
X172674035Y-123297830D01*
X172773903Y-123083663D01*
X172835063Y-122855408D01*
X172855659Y-122620000D01*
X172835063Y-122384592D01*
X172773903Y-122156337D01*
X172674035Y-121942171D01*
X172563434Y-121784215D01*
X172538494Y-121748597D01*
X172371402Y-121581506D01*
X172371396Y-121581501D01*
X172185842Y-121451575D01*
X172142217Y-121396998D01*
X172135023Y-121327500D01*
X172166546Y-121265145D01*
X172185842Y-121248425D01*
X172227335Y-121219371D01*
X172371401Y-121118495D01*
X172538495Y-120951401D01*
X172674035Y-120757830D01*
X172773903Y-120543663D01*
X172835063Y-120315408D01*
X172855659Y-120080000D01*
X172835063Y-119844592D01*
X172773903Y-119616337D01*
X172674035Y-119402171D01*
X172669280Y-119395379D01*
X172538494Y-119208597D01*
X172371402Y-119041506D01*
X172371401Y-119041505D01*
X172185405Y-118911269D01*
X172141781Y-118856692D01*
X172134588Y-118787193D01*
X172166110Y-118724839D01*
X172185405Y-118708119D01*
X172371082Y-118578105D01*
X172538105Y-118411082D01*
X172673600Y-118217578D01*
X172773429Y-118003492D01*
X172773432Y-118003486D01*
X172830636Y-117790000D01*
X171933012Y-117790000D01*
X171965925Y-117732993D01*
X172000000Y-117605826D01*
X172000000Y-117474174D01*
X171965925Y-117347007D01*
X171933012Y-117290000D01*
X172830636Y-117290000D01*
X172830635Y-117289999D01*
X172773432Y-117076513D01*
X172773429Y-117076507D01*
X172673600Y-116862422D01*
X172673599Y-116862420D01*
X172538113Y-116668926D01*
X172538108Y-116668920D01*
X172416053Y-116546865D01*
X172382568Y-116485542D01*
X172387552Y-116415850D01*
X172429424Y-116359917D01*
X172460400Y-116343002D01*
X172592331Y-116293796D01*
X172707546Y-116207546D01*
X172793796Y-116092331D01*
X172844091Y-115957483D01*
X172850500Y-115897873D01*
X172850499Y-114102128D01*
X172844091Y-114042517D01*
X172793828Y-113907756D01*
X172793797Y-113907671D01*
X172793793Y-113907664D01*
X172707547Y-113792455D01*
X172707544Y-113792452D01*
X172592335Y-113706206D01*
X172592328Y-113706202D01*
X172457482Y-113655908D01*
X172457483Y-113655908D01*
X172397883Y-113649501D01*
X172397881Y-113649500D01*
X172397873Y-113649500D01*
X172397864Y-113649500D01*
X170602129Y-113649500D01*
X170602123Y-113649501D01*
X170542516Y-113655908D01*
X170407671Y-113706202D01*
X170407664Y-113706206D01*
X170292455Y-113792452D01*
X170292452Y-113792455D01*
X170206206Y-113907664D01*
X170206202Y-113907671D01*
X170155908Y-114042517D01*
X170149501Y-114102116D01*
X170149501Y-114102123D01*
X170149500Y-114102135D01*
X170149500Y-115449901D01*
X170129815Y-115516940D01*
X170113181Y-115537582D01*
X165436929Y-120213836D01*
X165375606Y-120247321D01*
X165349248Y-120250155D01*
X152249196Y-120250155D01*
X152096466Y-120291078D01*
X152054328Y-120315408D01*
X152054327Y-120315408D01*
X151959540Y-120370132D01*
X151959535Y-120370136D01*
X151847731Y-120481941D01*
X151601219Y-120728452D01*
X151539896Y-120761937D01*
X151470204Y-120756953D01*
X151466101Y-120755338D01*
X151394693Y-120725760D01*
X151394689Y-120725759D01*
X151394683Y-120725757D01*
X151143151Y-120665370D01*
X150885253Y-120645073D01*
X150627354Y-120665370D01*
X150375822Y-120725757D01*
X150375810Y-120725761D01*
X150136811Y-120824757D01*
X149916243Y-120959922D01*
X149916238Y-120959925D01*
X149719529Y-121127931D01*
X149551523Y-121324640D01*
X149551520Y-121324645D01*
X149416355Y-121545213D01*
X149317359Y-121784212D01*
X149317355Y-121784224D01*
X149256968Y-122035756D01*
X149236671Y-122293655D01*
X132400926Y-122293655D01*
X132400926Y-118229655D01*
X149236671Y-118229655D01*
X149256968Y-118487553D01*
X149317355Y-118739085D01*
X149317359Y-118739097D01*
X149416355Y-118978096D01*
X149551520Y-119198664D01*
X149551523Y-119198669D01*
X149627679Y-119287836D01*
X149719529Y-119395379D01*
X149845444Y-119502920D01*
X149916238Y-119563384D01*
X149916243Y-119563387D01*
X150136811Y-119698552D01*
X150221310Y-119733552D01*
X150375813Y-119797550D01*
X150627358Y-119857940D01*
X150885253Y-119878237D01*
X151143148Y-119857940D01*
X151394693Y-119797550D01*
X151633694Y-119698552D01*
X151854265Y-119563386D01*
X151960422Y-119472719D01*
X152024182Y-119444149D01*
X152093268Y-119454586D01*
X152121482Y-119472718D01*
X152174477Y-119517980D01*
X152227638Y-119563384D01*
X152227643Y-119563387D01*
X152448211Y-119698552D01*
X152532710Y-119733552D01*
X152687213Y-119797550D01*
X152938758Y-119857940D01*
X153196653Y-119878237D01*
X153454548Y-119857940D01*
X153706093Y-119797550D01*
X153945094Y-119698552D01*
X154165665Y-119563386D01*
X154362377Y-119395379D01*
X154530384Y-119198667D01*
X154665550Y-118978096D01*
X154764548Y-118739095D01*
X154824938Y-118487550D01*
X154845235Y-118229655D01*
X154824938Y-117971760D01*
X154764548Y-117720215D01*
X154665550Y-117481214D01*
X154665550Y-117481213D01*
X154530385Y-117260645D01*
X154530382Y-117260640D01*
X154427261Y-117139901D01*
X154362377Y-117063931D01*
X154254834Y-116972081D01*
X154165667Y-116895925D01*
X154165662Y-116895922D01*
X153945094Y-116760757D01*
X153723393Y-116668926D01*
X153706093Y-116661760D01*
X153706089Y-116661759D01*
X153706083Y-116661757D01*
X153454551Y-116601370D01*
X153196653Y-116581073D01*
X152938754Y-116601370D01*
X152687222Y-116661757D01*
X152687210Y-116661761D01*
X152448211Y-116760757D01*
X152227643Y-116895922D01*
X152227639Y-116895924D01*
X152121484Y-116986589D01*
X152057723Y-117015159D01*
X151988637Y-117004721D01*
X151960422Y-116986589D01*
X151854266Y-116895924D01*
X151854262Y-116895922D01*
X151633694Y-116760757D01*
X151411993Y-116668926D01*
X151394693Y-116661760D01*
X151394689Y-116661759D01*
X151394683Y-116661757D01*
X151143151Y-116601370D01*
X150885253Y-116581073D01*
X150627354Y-116601370D01*
X150375822Y-116661757D01*
X150375810Y-116661761D01*
X150136811Y-116760757D01*
X149916243Y-116895922D01*
X149916238Y-116895925D01*
X149719529Y-117063931D01*
X149551523Y-117260640D01*
X149551520Y-117260645D01*
X149416355Y-117481213D01*
X149317359Y-117720212D01*
X149317355Y-117720224D01*
X149256968Y-117971756D01*
X149236671Y-118229655D01*
X132400926Y-118229655D01*
X132400926Y-114165655D01*
X149236671Y-114165655D01*
X149256968Y-114423553D01*
X149317355Y-114675085D01*
X149317359Y-114675097D01*
X149416355Y-114914096D01*
X149551520Y-115134664D01*
X149551523Y-115134669D01*
X149627679Y-115223836D01*
X149719529Y-115331379D01*
X149845444Y-115438920D01*
X149916238Y-115499384D01*
X149916243Y-115499387D01*
X150136811Y-115634552D01*
X150221310Y-115669552D01*
X150375813Y-115733550D01*
X150627358Y-115793940D01*
X150885253Y-115814237D01*
X151143148Y-115793940D01*
X151394693Y-115733550D01*
X151633694Y-115634552D01*
X151854265Y-115499386D01*
X151960422Y-115408719D01*
X152024182Y-115380149D01*
X152093268Y-115390586D01*
X152121482Y-115408718D01*
X152169701Y-115449901D01*
X152227638Y-115499384D01*
X152227643Y-115499387D01*
X152448211Y-115634552D01*
X152532710Y-115669552D01*
X152687213Y-115733550D01*
X152938758Y-115793940D01*
X153196653Y-115814237D01*
X153454548Y-115793940D01*
X153706093Y-115733550D01*
X153945094Y-115634552D01*
X154165665Y-115499386D01*
X154362377Y-115331379D01*
X154530384Y-115134667D01*
X154665550Y-114914096D01*
X154764548Y-114675095D01*
X154824938Y-114423550D01*
X154845235Y-114165655D01*
X154824938Y-113907760D01*
X154764548Y-113656215D01*
X154665550Y-113417214D01*
X154665550Y-113417213D01*
X154530385Y-113196645D01*
X154530382Y-113196640D01*
X154469918Y-113125846D01*
X154362377Y-112999931D01*
X154254834Y-112908081D01*
X154165667Y-112831925D01*
X154165662Y-112831922D01*
X153945094Y-112696757D01*
X153706095Y-112597761D01*
X153706097Y-112597761D01*
X153706093Y-112597760D01*
X153706089Y-112597759D01*
X153706083Y-112597757D01*
X153454551Y-112537370D01*
X153196653Y-112517073D01*
X152938754Y-112537370D01*
X152687222Y-112597757D01*
X152687210Y-112597761D01*
X152448211Y-112696757D01*
X152227643Y-112831922D01*
X152227639Y-112831924D01*
X152121484Y-112922589D01*
X152057723Y-112951159D01*
X151988637Y-112940721D01*
X151960422Y-112922589D01*
X151854266Y-112831924D01*
X151854262Y-112831922D01*
X151633694Y-112696757D01*
X151394695Y-112597761D01*
X151394697Y-112597761D01*
X151394693Y-112597760D01*
X151394689Y-112597759D01*
X151394683Y-112597757D01*
X151143151Y-112537370D01*
X150885253Y-112517073D01*
X150627354Y-112537370D01*
X150375822Y-112597757D01*
X150375810Y-112597761D01*
X150136811Y-112696757D01*
X149916243Y-112831922D01*
X149916238Y-112831925D01*
X149719529Y-112999931D01*
X149551523Y-113196640D01*
X149551520Y-113196645D01*
X149416355Y-113417213D01*
X149317359Y-113656212D01*
X149317355Y-113656224D01*
X149256968Y-113907756D01*
X149236671Y-114165655D01*
X132400926Y-114165655D01*
X132400926Y-110110085D01*
X137639376Y-110110085D01*
X137659130Y-110424084D01*
X137659131Y-110424091D01*
X137718090Y-110733163D01*
X137815317Y-111032396D01*
X137815319Y-111032401D01*
X137949281Y-111317083D01*
X137949284Y-111317089D01*
X138117871Y-111582741D01*
X138117874Y-111582745D01*
X138318426Y-111825170D01*
X138318428Y-111825172D01*
X138547788Y-112040556D01*
X138547798Y-112040564D01*
X138802324Y-112225488D01*
X138802329Y-112225490D01*
X138802336Y-112225496D01*
X139078054Y-112377074D01*
X139078059Y-112377076D01*
X139078061Y-112377077D01*
X139078062Y-112377078D01*
X139370591Y-112492898D01*
X139370594Y-112492899D01*
X139543798Y-112537370D01*
X139675347Y-112571146D01*
X139740830Y-112579418D01*
X139987490Y-112610579D01*
X139987499Y-112610579D01*
X139987502Y-112610580D01*
X139987504Y-112610580D01*
X140302136Y-112610580D01*
X140302138Y-112610580D01*
X140302141Y-112610579D01*
X140302149Y-112610579D01*
X140488413Y-112587048D01*
X140614293Y-112571146D01*
X140919045Y-112492899D01*
X140919048Y-112492898D01*
X141211577Y-112377078D01*
X141211578Y-112377077D01*
X141211576Y-112377077D01*
X141211586Y-112377074D01*
X141487304Y-112225496D01*
X141741850Y-112040558D01*
X141971210Y-111825174D01*
X142171767Y-111582743D01*
X142340357Y-111317087D01*
X142474323Y-111032395D01*
X142571551Y-110733159D01*
X142630508Y-110424095D01*
X142650264Y-110110080D01*
X142634736Y-109863270D01*
X142630509Y-109796075D01*
X142630508Y-109796068D01*
X142630508Y-109796065D01*
X142571551Y-109487001D01*
X142474323Y-109187765D01*
X142340357Y-108903073D01*
X142171767Y-108637417D01*
X142153803Y-108615702D01*
X141971213Y-108394989D01*
X141971211Y-108394987D01*
X141741851Y-108179603D01*
X141741841Y-108179595D01*
X141487315Y-107994671D01*
X141487308Y-107994666D01*
X141487304Y-107994664D01*
X141211586Y-107843086D01*
X141211583Y-107843084D01*
X141211578Y-107843082D01*
X141211577Y-107843081D01*
X140919048Y-107727261D01*
X140919045Y-107727260D01*
X140614296Y-107649014D01*
X140614283Y-107649012D01*
X140302149Y-107609580D01*
X140302138Y-107609580D01*
X139987502Y-107609580D01*
X139987490Y-107609580D01*
X139675356Y-107649012D01*
X139675343Y-107649014D01*
X139370594Y-107727260D01*
X139370591Y-107727261D01*
X139078062Y-107843081D01*
X139078061Y-107843082D01*
X138802336Y-107994664D01*
X138802324Y-107994671D01*
X138547798Y-108179595D01*
X138547788Y-108179603D01*
X138318428Y-108394987D01*
X138318426Y-108394989D01*
X138117874Y-108637414D01*
X138117871Y-108637418D01*
X137949284Y-108903070D01*
X137949281Y-108903076D01*
X137815319Y-109187758D01*
X137815317Y-109187763D01*
X137718090Y-109486996D01*
X137659131Y-109796068D01*
X137659130Y-109796075D01*
X137639376Y-110110074D01*
X137639376Y-110110085D01*
X132400926Y-110110085D01*
X132400926Y-100002706D01*
X132400985Y-100000000D01*
X133695384Y-100000000D01*
X133715536Y-100358846D01*
X133715538Y-100358858D01*
X133775740Y-100713185D01*
X133775742Y-100713194D01*
X133875238Y-101058552D01*
X134012779Y-101390609D01*
X134012781Y-101390613D01*
X134186641Y-101705189D01*
X134186644Y-101705194D01*
X134394619Y-101998306D01*
X134467270Y-102079601D01*
X135785154Y-100761717D01*
X135870704Y-100879466D01*
X136020960Y-101029722D01*
X136138707Y-101115270D01*
X134820823Y-102433154D01*
X134902119Y-102505806D01*
X135195231Y-102713781D01*
X135195236Y-102713784D01*
X135509812Y-102887644D01*
X135509816Y-102887646D01*
X135841873Y-103025187D01*
X136187231Y-103124683D01*
X136187240Y-103124685D01*
X136541567Y-103184887D01*
X136541579Y-103184889D01*
X136900426Y-103205041D01*
X137259272Y-103184889D01*
X137259284Y-103184887D01*
X137613611Y-103124685D01*
X137613620Y-103124683D01*
X137958978Y-103025187D01*
X138291035Y-102887646D01*
X138291039Y-102887644D01*
X138605615Y-102713784D01*
X138605620Y-102713781D01*
X138898725Y-102505811D01*
X138898748Y-102505793D01*
X138980028Y-102433155D01*
X138980028Y-102433154D01*
X137662144Y-101115270D01*
X137779892Y-101029722D01*
X137930148Y-100879466D01*
X138015696Y-100761718D01*
X139333580Y-102079602D01*
X139333581Y-102079602D01*
X139406219Y-101998322D01*
X139406237Y-101998299D01*
X139614207Y-101705194D01*
X139614210Y-101705189D01*
X139788070Y-101390613D01*
X139788072Y-101390609D01*
X139925613Y-101058552D01*
X140025109Y-100713194D01*
X140025111Y-100713185D01*
X140085313Y-100358858D01*
X140085315Y-100358846D01*
X140105467Y-100000000D01*
X173695384Y-100000000D01*
X173715536Y-100358846D01*
X173715538Y-100358858D01*
X173775740Y-100713185D01*
X173775742Y-100713194D01*
X173875238Y-101058552D01*
X174012779Y-101390609D01*
X174012781Y-101390613D01*
X174186641Y-101705189D01*
X174186644Y-101705194D01*
X174394619Y-101998306D01*
X174467270Y-102079601D01*
X175785154Y-100761717D01*
X175870704Y-100879466D01*
X176020960Y-101029722D01*
X176138707Y-101115270D01*
X174820823Y-102433154D01*
X174902119Y-102505806D01*
X175195231Y-102713781D01*
X175195236Y-102713784D01*
X175509812Y-102887644D01*
X175509816Y-102887646D01*
X175841873Y-103025187D01*
X176187231Y-103124683D01*
X176187240Y-103124685D01*
X176541567Y-103184887D01*
X176541579Y-103184889D01*
X176900426Y-103205041D01*
X177259272Y-103184889D01*
X177259284Y-103184887D01*
X177613611Y-103124685D01*
X177613620Y-103124683D01*
X177958978Y-103025187D01*
X178291035Y-102887646D01*
X178291039Y-102887644D01*
X178605615Y-102713784D01*
X178605620Y-102713781D01*
X178898725Y-102505811D01*
X178898748Y-102505793D01*
X178980028Y-102433155D01*
X178980028Y-102433154D01*
X177662144Y-101115270D01*
X177779892Y-101029722D01*
X177930148Y-100879466D01*
X178015696Y-100761718D01*
X179333580Y-102079602D01*
X179333581Y-102079602D01*
X179406219Y-101998322D01*
X179406237Y-101998299D01*
X179614207Y-101705194D01*
X179614210Y-101705189D01*
X179788070Y-101390613D01*
X179788072Y-101390609D01*
X179925613Y-101058552D01*
X180025109Y-100713194D01*
X180025111Y-100713185D01*
X180085313Y-100358858D01*
X180085315Y-100358846D01*
X180105467Y-100000000D01*
X180085315Y-99641153D01*
X180085313Y-99641141D01*
X180025111Y-99286814D01*
X180025109Y-99286805D01*
X179925613Y-98941447D01*
X179788072Y-98609390D01*
X179788070Y-98609386D01*
X179614210Y-98294810D01*
X179614207Y-98294805D01*
X179406232Y-98001693D01*
X179333580Y-97920397D01*
X178015696Y-99238281D01*
X177930148Y-99120534D01*
X177779892Y-98970278D01*
X177662143Y-98884729D01*
X178980027Y-97566844D01*
X178980028Y-97566844D01*
X178898732Y-97494193D01*
X178605620Y-97286218D01*
X178605615Y-97286215D01*
X178291039Y-97112355D01*
X178291035Y-97112353D01*
X177958978Y-96974812D01*
X177613620Y-96875316D01*
X177613611Y-96875314D01*
X177259284Y-96815112D01*
X177259272Y-96815110D01*
X176900426Y-96794958D01*
X176541579Y-96815110D01*
X176541567Y-96815112D01*
X176187240Y-96875314D01*
X176187231Y-96875316D01*
X175841873Y-96974812D01*
X175509816Y-97112353D01*
X175509812Y-97112355D01*
X175195236Y-97286215D01*
X175195231Y-97286218D01*
X174902119Y-97494193D01*
X174820823Y-97566844D01*
X176138708Y-98884729D01*
X176020960Y-98970278D01*
X175870704Y-99120534D01*
X175785155Y-99238282D01*
X174467270Y-97920397D01*
X174394619Y-98001693D01*
X174186644Y-98294805D01*
X174186641Y-98294810D01*
X174012781Y-98609386D01*
X174012779Y-98609390D01*
X173875238Y-98941447D01*
X173775742Y-99286805D01*
X173775740Y-99286814D01*
X173715538Y-99641141D01*
X173715536Y-99641153D01*
X173695384Y-100000000D01*
X140105467Y-100000000D01*
X140085315Y-99641153D01*
X140085313Y-99641141D01*
X140025111Y-99286814D01*
X140025109Y-99286805D01*
X139925613Y-98941447D01*
X139788072Y-98609390D01*
X139788070Y-98609386D01*
X139614210Y-98294810D01*
X139614207Y-98294805D01*
X139406232Y-98001693D01*
X139333580Y-97920397D01*
X138015696Y-99238281D01*
X137930148Y-99120534D01*
X137779892Y-98970278D01*
X137662143Y-98884729D01*
X138980027Y-97566844D01*
X138980028Y-97566844D01*
X138898732Y-97494193D01*
X138605620Y-97286218D01*
X138605615Y-97286215D01*
X138291039Y-97112355D01*
X138291035Y-97112353D01*
X137958978Y-96974812D01*
X137613620Y-96875316D01*
X137613611Y-96875314D01*
X137259284Y-96815112D01*
X137259272Y-96815110D01*
X136900426Y-96794958D01*
X136541579Y-96815110D01*
X136541567Y-96815112D01*
X136187240Y-96875314D01*
X136187231Y-96875316D01*
X135841873Y-96974812D01*
X135509816Y-97112353D01*
X135509812Y-97112355D01*
X135195236Y-97286215D01*
X135195231Y-97286218D01*
X134902119Y-97494193D01*
X134820823Y-97566844D01*
X136138708Y-98884729D01*
X136020960Y-98970278D01*
X135870704Y-99120534D01*
X135785155Y-99238282D01*
X134467270Y-97920397D01*
X134394619Y-98001693D01*
X134186644Y-98294805D01*
X134186641Y-98294810D01*
X134012781Y-98609386D01*
X134012779Y-98609390D01*
X133875238Y-98941447D01*
X133775742Y-99286805D01*
X133775740Y-99286814D01*
X133715538Y-99641141D01*
X133715536Y-99641153D01*
X133695384Y-100000000D01*
X132400985Y-100000000D01*
X132401044Y-99997297D01*
X132405565Y-99893753D01*
X132417812Y-99613227D01*
X132418751Y-99602498D01*
X132468578Y-99224031D01*
X132470451Y-99213404D01*
X132553074Y-98840717D01*
X132555869Y-98830288D01*
X132670653Y-98466239D01*
X132674350Y-98456083D01*
X132820429Y-98103417D01*
X132824995Y-98093629D01*
X133001253Y-97755041D01*
X133006650Y-97745696D01*
X133211746Y-97423762D01*
X133217931Y-97414925D01*
X133450334Y-97112055D01*
X133457265Y-97103797D01*
X133715152Y-96822363D01*
X133722767Y-96814747D01*
X134004219Y-96556845D01*
X134012503Y-96549896D01*
X134315334Y-96317526D01*
X134324169Y-96311338D01*
X134646124Y-96106232D01*
X134655466Y-96100839D01*
X134994078Y-95924571D01*
X135003832Y-95920023D01*
X135356530Y-95773931D01*
X135366643Y-95770251D01*
X135730725Y-95655458D01*
X135741128Y-95652671D01*
X136113834Y-95570046D01*
X136124445Y-95568175D01*
X136502920Y-95518349D01*
X136513650Y-95517410D01*
X136814203Y-95504290D01*
X136898322Y-95500618D01*
X136903729Y-95500500D01*
X136966315Y-95500501D01*
X136966319Y-95500500D01*
X176834531Y-95500500D01*
X176897716Y-95500500D01*
X176903125Y-95500618D01*
G37*
%TD.AperFunction*%
%TD*%
M02*
